<svg xmlns="http://www.w3.org/2000/svg" xmlns:xlink="http://www.w3.org/1999/xlink" xmlns:lucid="lucid" width="3402" height="1413"><g transform="translate(21 -99)" lucid:page-tab-id="0_0"><path d="M0 0h3500v2000H0z" fill="#fff"/><path d="M188 140c17.67 0 32 17.9 32 40s-14.33 40-32 40H92c-17.67 0-32-17.9-32-40s14.33-40 32-40z" stroke="#000" stroke-opacity="0" stroke-width="2" fill="#d2d3d5"/><use xlink:href="#a" transform="matrix(1,0,0,1,65,145) translate(54.05 38.6)"/><path d="M80 265.18a8 8 0 0 1 8-8h144a8 8 0 0 1 8 8v104a8 8 0 0 1-8 8H88a8 8 0 0 1-8-8z" stroke="#000" stroke-opacity="0" stroke-width="2" fill="#d85656"/><use xlink:href="#b" transform="matrix(1,0,0,1,85,262.17912602912514) translate(15.649999999999991 58.6)"/><path d="M166.27 419.16a10.67 10.67 0 0 1 12.8 0l67.2 50.4a6 6 0 0 1 0 9.6l-67.2 50.4a10.67 10.67 0 0 1-12.8 0l-67.2-50.4a6 6 0 0 1 0-9.6z" stroke="#c54242" stroke-width="4" fill="#fff"/><use xlink:href="#c" transform="matrix(1,0,0,1,97.66785980474378,419.3582520582503) translate(60 58.6)"/><path d="M0 606.3a8 8 0 0 1 8-8h144a8 8 0 0 1 8 8v104a8 8 0 0 1-8 8H8a8 8 0 0 1-8-8z" stroke="#000" stroke-opacity="0" stroke-width="2" fill="#ff8080"/><path d="M320 588a8 8 0 0 1 8-8h144a8 8 0 0 1 8 8v104a8 8 0 0 1-8 8H328a8 8 0 0 1-8-8z" stroke="#000" stroke-opacity="0" stroke-width="2" fill="#ffa0a0"/><use xlink:href="#d" transform="matrix(1,0,0,1,325,585) translate(13.149999999999991 58.6)"/><use xlink:href="#e" transform="matrix(1,0,0,1,325,585) translate(63 58.6)"/><path d="M220.5 180H250a10 10 0 0 1 10 10v38.6a10 10 0 0 1-10 10H50a10 10 0 0 0-10 10v58.58a10 10 0 0 0 10 10h13.62" stroke="#333" fill="none"/><path d="M220.5 180.47h-.53l.03-.47-.02-.47h.53z" stroke="#333" stroke-width=".05" fill="#333"/><path d="M78.38 317.18l-14.26 4.63v-9.26z" stroke="#333" fill="#333"/><path d="M190.02 565.85l1.62.13 1.6.38 1.52.63 1.4.85 1.25 1.06 1.08 1.26.86 1.4.62 1.53.4 1.58.1 1.62v72l-.1 1.63-.4 1.6-.63 1.5-.85 1.4-1.07 1.26-1.24 1.06-1.4.86-1.52.63-1.6.38-1.62.13h-13.64v-.95h13.6l1.5-.1 1.46-.36 1.38-.57 1.28-.78 1.13-.98.98-1.14.8-1.27.56-1.37.35-1.45.13-1.5v-71.94l-.12-1.5-.34-1.46-.57-1.38-.8-1.28-.97-1.13-1.13-.98-1.28-.78-1.38-.58-1.45-.34-1.52-.12h-52.32v-.95zM64.68 474.83l-1.5.12-1.46.35-1.38.57-1.28.78-1.14.97-.97 1.14-.78 1.28-.57 1.38-.35 1.45-.12 1.5v71.93l.12 1.5.35 1.47.57 1.38.78 1.27.97 1.14 1.14.97 1.28.78 1.38.58 1.45.35 1.5.12H117v.95H64.64l-1.62-.13-1.6-.38-1.52-.64-1.4-.86-1.25-1.07-1.07-1.25-.85-1.4-.63-1.52-.4-1.6-.12-1.62v-72l.13-1.62.4-1.6.63-1.52.85-1.4 1.07-1.25 1.25-1.07 1.4-.86 1.52-.63 1.6-.4 1.62-.12h29.52v.95z" stroke="#333" stroke-width=".05" fill="#333"/><path d="M94.66 474.36l.04.47h-.55v-.95h.55z" fill="#333"/><path stroke="#333" stroke-width=".05" fill="#333"/><path d="M175.88 662.92l-14.26-4.63 14.26-4.65z" fill="#333"/><path d="M176.36 663.58l-16.28-5.3 16.28-5.28zm-13.2-5.3l12.25 4v-7.98z" stroke="#333" stroke-width=".05" fill="#333"/><use xlink:href="#f" transform="matrix(1,0,0,1,117.00245020997055,556.988667061657) translate(0 12.444444444444446)"/><path d="M393.25 556.37l1.12.1 1.1.26 1.05.43.97.6.86.73.73.86.6.97.42 1.05.27 1.1.07 1.1-.94.07-.08-1.02-.23-.96-.38-.9-.52-.85-.64-.75-.75-.64-.84-.52-.92-.37-.96-.23-1-.08H256.3v-.95zm-220-8.03l.36 1.45.58 1.37.78 1.28.97 1.13 1.14.97 1.27.78 1.38.57 1.46.35 1.5.12h58.94v.95h-58.97l-1.62-.13-1.6-.4-1.52-.62-1.4-.86-1.24-1.06-1.07-1.25-.87-1.4-.63-1.5-.38-1.6-.13-1.63V534.2h.94v12.63z" stroke="#333" stroke-width=".05" fill="#333"/><path d="M172.67 533.7l.47-.04v.55h-.95v-.54z" fill="#333"/><path stroke="#333" stroke-width=".05" fill="#333"/><path d="M400 578.38l-4.63-14.26h9.26z" fill="#333"/><path d="M400 579.92l-5.3-16.28h10.6zm-3.98-15.33l3.98 12.25 3.98-12.26z" stroke="#333" stroke-width=".05" fill="#333"/><use xlink:href="#g" transform="matrix(1,0,0,1,241.62057517752282,547.5145481435837) translate(0 12.444444444444446)"/><path d="M160 377.68v12.1a6.33 6.33 0 0 0 6.33 6.32h3.8a2.54 2.54 0 0 1 2.54 2.54" stroke="#333" fill="none"/><path d="M160.47 377.7h-.94v-.52h.94z" stroke="#333" stroke-width=".05" fill="#333"/><path d="M172.67 413.4l-4.64-14.26h9.27z" stroke="#333" fill="#333"/><path d="M80 718.8v88.34a12 12 0 0 0 12 12h196a12 12 0 0 1 12 12v72.48" stroke="#333" fill="none"/><path d="M80.47 718.8h-.94v-.5h.94z" stroke="#333" stroke-width=".05" fill="#333"/><path d="M300 918.38l-4.63-14.26h9.26z" stroke="#333" fill="#333"/><path d="M220 928a8 8 0 0 1 8-8h144a8 8 0 0 1 8 8v104a8 8 0 0 1-8 8H228a8 8 0 0 1-8-8z" stroke="#000" stroke-opacity="0" stroke-width="2" fill="#ffa0a0"/><use xlink:href="#h" transform="matrix(1,0,0,1,225,925) translate(3.125 58.6)"/><path d="M400 700.5V798a12 12 0 0 1-12 12h-61.82a12 12 0 0 0-12 12v81.62" stroke="#333" fill="none"/><path d="M400.48 700.5h-.96v-.5h.96z" stroke="#333" stroke-width=".05" fill="#333"/><path d="M314.18 918.38l-4.64-14.26h9.27z" stroke="#333" fill="#333"/><path d="M1008 120c17.67 0 32 17.9 32 40s-14.33 40-32 40h-96c-17.67 0-32-17.9-32-40s14.33-40 32-40z" stroke="#000" stroke-opacity="0" stroke-width="2" fill="#d2d3d5"/><use xlink:href="#a" transform="matrix(1,0,0,1,885,125) translate(54.05 38.6)"/><path d="M900 268a8 8 0 0 1 8-8h144a8 8 0 0 1 8 8v104a8 8 0 0 1-8 8H908a8 8 0 0 1-8-8z" stroke="#000" stroke-opacity="0" stroke-width="2" fill="#d85656"/><use xlink:href="#i" transform="matrix(1,0,0,1,905,265) translate(23.549999999999997 58.6)"/><use xlink:href="#j" transform="matrix(1,0,0,1,905,265) translate(87.45 58.6)"/><path d="M773.6 399.16a10.67 10.67 0 0 1 12.8 0l67.2 50.4a6 6 0 0 1 0 9.6l-67.2 50.4a10.67 10.67 0 0 1-12.8 0l-67.2-50.4a6 6 0 0 1 0-9.6z" stroke="#c54242" stroke-width="4" fill="#fff"/><use xlink:href="#c" transform="matrix(1,0,0,1,705,399.3582520582503) translate(60 58.6)"/><path d="M500 586.3a8 8 0 0 1 8-8h144a8 8 0 0 1 8 8v104a8 8 0 0 1-8 8H508a8 8 0 0 1-8-8z" stroke="#000" stroke-opacity="0" stroke-width="2" fill="#ff8080"/><use xlink:href="#k" transform="matrix(1,0,0,1,505,583.2857487317306) translate(24.025 58.6)"/><use xlink:href="#j" transform="matrix(1,0,0,1,505,583.2857487317306) translate(86.975 58.6)"/><path d="M1040.5 160h29.5a10 10 0 0 1 10 10v50a10 10 0 0 1-10 10H870a10 10 0 0 0-10 10v70a10 10 0 0 0 10 10h13.62" stroke="#333" fill="none"/><path d="M1040.5 160.47h-.53l.03-.47-.02-.47h.53z" stroke="#333" stroke-width=".05" fill="#333"/><path d="M898.38 320l-14.26 4.63v-9.26z" stroke="#333" fill="#333"/><path d="M681.47 633.7l-.06.77-.18.78-.3.73-.42.68-.52.6-.6.53-.7.4-.72.3-.78.2-.76.06-.07-.95.68-.04.63-.15.6-.24.56-.34.5-.42.4-.5.35-.55.25-.6.15-.63.05-.67v-78h.95zm20.02-178.87H691l-1.5.12-1.45.35-1.38.57-1.27.78-1.14.97-.97 1.14-.8 1.28-.56 1.38-.35 1.45-.13 1.5V537h-.95v-72.66l.13-1.62.38-1.6.63-1.52.86-1.4 1.07-1.25 1.24-1.07 1.4-.86 1.52-.63 1.6-.4 1.62-.12h10.5z" stroke="#333" stroke-width=".05" fill="#333"/><path d="M702 454.36l.04.47h-.56v-.95h.56z" fill="#333"/><path stroke="#333" stroke-width=".05" fill="#333"/><path d="M675.88 642.92l-14.26-4.63 14.26-4.65z" fill="#333"/><path d="M676.36 643.58l-16.28-5.3 16.28-5.28zm-13.2-5.3l12.25 4v-7.98z" stroke="#333" stroke-width=".05" fill="#333"/><use xlink:href="#f" transform="matrix(1,0,0,1,670.6685203075987,536.9886670616571) translate(0 12.444444444444446)"/><path d="M780.48 528.27l.1 1.5.36 1.46.57 1.38.8 1.28.97 1.14 1.13.97 1.28.77 1.38.57 1.45.35 1.52.1h11.32v.96h-11.36l-1.62-.13-1.6-.38-1.52-.63-1.4-.86-1.25-1.07-1.08-1.26-.86-1.4-.62-1.52-.4-1.6-.12-1.62v-14.1h.96zm105.13 9.54v.96h-69.57v-.95z" stroke="#333" stroke-width=".05" fill="#333"/><path d="M780 513.7l.48-.04v.55h-.96v-.54z" fill="#333"/><path stroke="#333" stroke-width=".05" fill="#333"/><path d="M900.37 538.3l-14.26 4.62v-9.27z" fill="#333"/><path d="M901.9 538.3l-16.27 5.28V533zm-15.32 3.97l12.26-3.98-12.26-4z" stroke="#333" stroke-width=".05" fill="#333"/><use xlink:href="#g" transform="matrix(1,0,0,1,801.3379115949339,528.9524153983971) translate(0 12.444444444444446)"/><path d="M980 380.5a7 7 0 0 1-7 7H788.86" stroke="#333" fill="none"/><path d="M980.48 380.5h-.96v-.5h.96z" stroke="#333" stroke-width=".05" fill="#333"/><path d="M781.24 393.98l7.9-12.76 5.98 7.08z" stroke="#333" fill="#333"/><path d="M580 698.8v220.34a10 10 0 0 0 10 10 10 10 0 0 1 10 10v204.48" stroke="#333" fill="none"/><path d="M580.48 698.8h-.96v-.5h.96z" stroke="#333" stroke-width=".05" fill="#333"/><path d="M600 1158.38l-4.63-14.26h9.26z" stroke="#333" fill="#333"/><path d="M520 1168a8 8 0 0 1 8-8h144a8 8 0 0 1 8 8v104a8 8 0 0 1-8 8H528a8 8 0 0 1-8-8z" stroke="#000" stroke-opacity="0" stroke-width="2" fill="#ffa0a0"/><use xlink:href="#h" transform="matrix(1,0,0,1,525,1165) translate(3.125 58.6)"/><path d="M973.6 483.1a10.67 10.67 0 0 1 12.8 0l67.2 50.4a6 6 0 0 1 0 9.6l-67.2 50.4a10.67 10.67 0 0 1-12.8 0l-67.2-50.4a6 6 0 0 1 0-9.6z" stroke="#c54242" stroke-width="4" fill="#fff"/><use xlink:href="#l" transform="matrix(1,0,0,1,905,483.28574873173045) translate(35.775 58.6)"/><use xlink:href="#m" transform="matrix(1,0,0,1,905,483.28574873173045) translate(68.725 58.6)"/><use xlink:href="#n" transform="matrix(1,0,0,1,905,483.28574873173045) translate(84.225 58.6)"/><path d="M1180 486.3a8 8 0 0 1 8-8h144a8 8 0 0 1 8 8v104a8 8 0 0 1-8 8h-144a8 8 0 0 1-8-8z" stroke="#000" stroke-opacity="0" stroke-width="2" fill="#ff8080"/><use xlink:href="#o" transform="matrix(1,0,0,1,1192,490.28574873173045) translate(14.524999999999999 51.6)"/><use xlink:href="#p" transform="matrix(1,0,0,1,1192,490.28574873173045) translate(77.475 51.6)"/><path d="M1110.5 538.76h-52v-.95h52zm53.12 0h-36.12v-.95h36.12z" stroke="#333" stroke-width=".05" fill="#333"/><path d="M1058.52 538.76h-.56l.05-.47-.04-.5h.56z" fill="#333"/><path stroke="#333" stroke-width=".05" fill="#333"/><path d="M1178.38 538.3l-14.26 4.62v-9.27z" fill="#333"/><path d="M1179.92 538.3l-16.28 5.28V533zm-15.33 3.97l12.25-3.98-12.26-4z" stroke="#333" stroke-width=".05" fill="#333"/><use xlink:href="#q" transform="matrix(1,0,0,1,1110.5043191985742,527.4857487317305) translate(0.005000000000000782 14.4)"/><path d="M980.48 702.56h-.96v-45.3h.96zm0-66.9h-.96v-37.54h.96z" stroke="#333" stroke-width=".05" fill="#333"/><path d="M980 597.62l.48-.03v.54h-.96v-.55z" fill="#333"/><path stroke="#333" stroke-width=".05" fill="#333"/><path d="M980 717.33l-4.63-14.27h9.26z" fill="#333"/><path d="M980 718.87l-5.3-16.28h10.6zm-3.98-15.33L980 715.8l3.98-12.26z" stroke="#333" stroke-width=".05" fill="#333"/><use xlink:href="#r" transform="matrix(1,0,0,1,968.525,635.6741104596806) translate(0.005000000000000782 14.4)"/><path d="M973.6 723.1a10.67 10.67 0 0 1 12.8 0l67.2 50.4a6 6 0 0 1 0 9.6l-67.2 50.4a10.67 10.67 0 0 1-12.8 0l-67.2-50.4a6 6 0 0 1 0-9.6z" stroke="#c54242" stroke-width="4" fill="#fff"/><use xlink:href="#s" transform="matrix(1,0,0,1,905,723.2857487317305) translate(15.524999999999999 58.6)"/><use xlink:href="#m" transform="matrix(1,0,0,1,905,723.2857487317305) translate(40.525 58.6)"/><use xlink:href="#t" transform="matrix(1,0,0,1,905,723.2857487317305) translate(56.025 58.6)"/><use xlink:href="#m" transform="matrix(1,0,0,1,905,723.2857487317305) translate(88.975 58.6)"/><use xlink:href="#u" transform="matrix(1,0,0,1,905,723.2857487317305) translate(104.475 58.6)"/><path d="M1110.4 780.48h-52.1v-.96h52.1zm53.22-1.72h-36.22v-.95h36.22z" stroke="#333" stroke-width=".05" fill="#333"/><path d="M1058.32 780.48h-.65l.2-.72.02-.24h.42z" fill="#333"/><path stroke="#333" stroke-width=".05" fill="#333"/><path d="M1178.38 778.3l-14.26 4.62v-9.27z" fill="#333"/><path d="M1179.92 778.3l-16.28 5.28V773zm-15.33 3.97l12.25-3.98-12.26-4z" stroke="#333" stroke-width=".05" fill="#333"/><use xlink:href="#q" transform="matrix(1,0,0,1,1110.4017306365997,768.3428743658653) translate(0.005000000000000782 14.4)"/><path d="M1180 726.3a8 8 0 0 1 8-8h144a8 8 0 0 1 8 8v104a8 8 0 0 1-8 8h-144a8 8 0 0 1-8-8z" stroke="#000" stroke-opacity="0" stroke-width="2" fill="#ff8080"/><use xlink:href="#v" transform="matrix(1,0,0,1,1192,730.2857487317305) translate(13.549999999999997 30)"/><use xlink:href="#w" transform="matrix(1,0,0,1,1192,730.2857487317305) translate(82.45 30)"/><use xlink:href="#x" transform="matrix(1,0,0,1,1192,730.2857487317305) translate(16.525 51.6)"/><use xlink:href="#y" transform="matrix(1,0,0,1,1192,730.2857487317305) translate(79.475 51.6)"/><use xlink:href="#x" transform="matrix(1,0,0,1,1192,730.2857487317305) translate(16.525 73.2)"/><use xlink:href="#z" transform="matrix(1,0,0,1,1192,730.2857487317305) translate(79.475 73.2)"/><path d="M980.48 920.85h-.96V887.3h.96zm0-55.14h-.96v-27.58h.96z" stroke="#333" stroke-width=".05" fill="#333"/><path d="M980 837.62l.48-.03v.54h-.96v-.55z" fill="#333"/><path stroke="#333" stroke-width=".05" fill="#333"/><path d="M980 935.62l-4.63-14.27h9.26z" fill="#333"/><path d="M980 937.15l-5.3-16.27h10.6zm-3.98-15.32l3.98 12.25 3.98-12.25z" stroke="#333" stroke-width=".05" fill="#333"/><use xlink:href="#r" transform="matrix(1,0,0,1,968.525,865.7048303956612) translate(0.005000000000000782 14.4)"/><path d="M973.6 941.37a10.67 10.67 0 0 1 12.8 0l67.2 50.4a6 6 0 0 1 0 9.6l-67.2 50.4a10.67 10.67 0 0 1-12.8 0l-67.2-50.4a6 6 0 0 1 0-9.6z" stroke="#c54242" stroke-width="4" fill="#fff"/><use xlink:href="#A" transform="matrix(1,0,0,1,905,941.5714974634609) translate(15.524999999999999 58.6)"/><use xlink:href="#m" transform="matrix(1,0,0,1,905,941.5714974634609) translate(40.525 58.6)"/><use xlink:href="#t" transform="matrix(1,0,0,1,905,941.5714974634609) translate(56.025 58.6)"/><use xlink:href="#m" transform="matrix(1,0,0,1,905,941.5714974634609) translate(88.975 58.6)"/><use xlink:href="#B" transform="matrix(1,0,0,1,905,941.5714974634609) translate(104.475 58.6)"/><path d="M1118.02 1000.15l-.14.1-.32.12-.33.08-.33.02h-59.2v-.95H1117.07l.2-.06.18-.07.16-.1.16-.14.13-.15.1-.15.02-.07zm45.6-3.1h-28.6v-.95h28.6z" stroke="#333" stroke-width=".05" fill="#333"/><path d="M1057.7 1000.48h-.74l.48-.96h.27z" fill="#333"/><path stroke="#333" stroke-width=".05" fill="#333"/><path d="M1178.38 996.57l-14.26 4.64v-9.26z" fill="#333"/><path d="M1179.92 996.57l-16.28 5.3v-10.6zm-15.33 3.98l12.25-3.98-12.26-3.98z" stroke="#333" stroke-width=".05" fill="#333"/><use xlink:href="#q" transform="matrix(1,0,0,1,1118.0178928592036,985.771497463461) translate(0.005000000000000782 14.4)"/><path d="M1180 944.57a8 8 0 0 1 8-8h144a8 8 0 0 1 8 8v104a8 8 0 0 1-8 8h-144a8 8 0 0 1-8-8z" stroke="#000" stroke-opacity="0" stroke-width="2" fill="#ff8080"/><use xlink:href="#v" transform="matrix(1,0,0,1,1192,948.5714974634609) translate(13.549999999999997 30)"/><use xlink:href="#w" transform="matrix(1,0,0,1,1192,948.5714974634609) translate(82.45 30)"/><use xlink:href="#C" transform="matrix(1,0,0,1,1192,948.5714974634609) translate(13.549999999999997 51.6)"/><use xlink:href="#y" transform="matrix(1,0,0,1,1192,948.5714974634609) translate(82.45 51.6)"/><use xlink:href="#x" transform="matrix(1,0,0,1,1192,948.5714974634609) translate(16.525 73.2)"/><use xlink:href="#z" transform="matrix(1,0,0,1,1192,948.5714974634609) translate(79.475 73.2)"/><path d="M973.6 1144.8a10.67 10.67 0 0 1 12.8 0l67.2 50.4a6 6 0 0 1 0 9.6l-67.2 50.4a10.67 10.67 0 0 1-12.8 0l-67.2-50.4a6 6 0 0 1 0-9.6z" stroke="#c54242" stroke-width="4" fill="#fff"/><use xlink:href="#l" transform="matrix(1,0,0,1,905,1145) translate(35.775 58.6)"/><use xlink:href="#D" transform="matrix(1,0,0,1,905,1145) translate(68.725 58.6)"/><use xlink:href="#B" transform="matrix(1,0,0,1,905,1145) translate(84.225 58.6)"/><path d="M980.48 1124.28h-.96v-23.26h.96zm0-44.86h-.96v-23h.96z" stroke="#333" stroke-width=".05" fill="#333"/><path d="M980 1055.9l.48-.02v.54h-.96v-.54z" fill="#333"/><path stroke="#333" stroke-width=".05" fill="#333"/><path d="M980 1139.05l-4.63-14.27h9.26z" fill="#333"/><path d="M980 1140.58l-5.3-16.28h10.6zm-3.98-15.33l3.98 12.26 3.98-12.25z" stroke="#333" stroke-width=".05" fill="#333"/><use xlink:href="#r" transform="matrix(1,0,0,1,968.525,1079.4222222222222) translate(0.005000000000000782 14.4)"/><path d="M1180 1148a8 8 0 0 1 8-8h144a8 8 0 0 1 8 8v104a8 8 0 0 1-8 8h-144a8 8 0 0 1-8-8z" stroke="#000" stroke-opacity="0" stroke-width="2" fill="#ff8080"/><use xlink:href="#v" transform="matrix(1,0,0,1,1192,1152) translate(11.549999999999997 51.6)"/><use xlink:href="#p" transform="matrix(1,0,0,1,1192,1152) translate(80.45 51.6)"/><path d="M1119.42 1200.47h-60.9v-.94h60.9zm44.2 0h-27.2v-.94h27.2z" stroke="#333" stroke-width=".05" fill="#333"/><path d="M1058.52 1200.47h-.56l.05-.47-.04-.47h.56z" fill="#333"/><path stroke="#333" stroke-width=".05" fill="#333"/><path d="M1178.38 1200l-14.26 4.63v-9.27z" fill="#333"/><path d="M1179.92 1200l-16.28 5.3v-10.6zm-15.33 3.98l12.25-3.98-12.26-3.98z" stroke="#333" stroke-width=".05" fill="#333"/><use xlink:href="#q" transform="matrix(1,0,0,1,1119.421844170486,1189.2) translate(0.005000000000000782 14.4)"/><path d="M709.95 1219.68l1.9.45 1.8.75 1.68 1.03 1.5 1.28 1.26 1.5 1.02 1.66.75 1.8.45 1.9.15 1.94v56l.15 1.82.42 1.76.7 1.67.94 1.54 1.17 1.38 1.38 1.17 1.54.95 1.67.7 1.76.4 1.82.16h515.96l1.82-.15 1.76-.42 1.67-.7 1.54-.94 1.38-1.17 1.17-1.38.95-1.54.7-1.67.4-1.76.16-1.82v-27.48h.94v27.52l-.15 1.93-.45 1.9-.75 1.8-1.03 1.68-1.28 1.5-1.5 1.26-1.66 1.02-1.8.75-1.9.45-1.94.15H731.98l-1.93-.15-1.9-.45-1.8-.75-1.68-1.03-1.5-1.28-1.26-1.5-1.02-1.66-.75-1.8-.45-1.9-.15-1.94v-56l-.15-1.82-.42-1.76-.7-1.67-.94-1.54-1.17-1.38-1.38-1.17-1.54-.95-1.67-.7-1.76-.4-1.82-.16h-11.6v-.94h11.64z" stroke="#333" stroke-width=".05" fill="#333"/><path d="M1260.47 1260.5h-.94v-.5h.94z" fill="#333"/><path stroke="#333" stroke-width=".05" fill="#333"/><path d="M695.88 1224.63l-14.26-4.63 14.26-4.63z" fill="#333"/><path d="M696.36 1225.3l-16.28-5.3 16.28-5.3zm-13.2-5.3l12.25 3.98v-7.96z" stroke="#333" stroke-width=".05" fill="#333"/><path d="M1948 140c17.67 0 32 17.9 32 40s-14.33 40-32 40h-96c-17.67 0-32-17.9-32-40s14.33-40 32-40z" stroke="#000" stroke-opacity="0" stroke-width="2" fill="#d2d3d5"/><use xlink:href="#a" transform="matrix(1,0,0,1,1825,145) translate(54.05 38.6)"/><path d="M1820 282.36a8 8 0 0 1 8-8h144a8 8 0 0 1 8 8v104a8 8 0 0 1-8 8h-144a8 8 0 0 1-8-8z" stroke="#000" stroke-opacity="0" stroke-width="2" fill="#d85656"/><use xlink:href="#E" transform="matrix(1,0,0,1,1825,279.3582520582503) translate(5.1499999999999915 58.6)"/><use xlink:href="#F" transform="matrix(1,0,0,1,1825,279.3582520582503) translate(71 58.6)"/><path d="M1646.27 399.16a10.67 10.67 0 0 1 12.8 0l67.2 50.4a6 6 0 0 1 0 9.6l-67.2 50.4a10.67 10.67 0 0 1-12.8 0l-67.2-50.4a6 6 0 0 1 0-9.6z" stroke="#c54242" stroke-width="4" fill="#fff"/><use xlink:href="#c" transform="matrix(1,0,0,1,1577.6678598047438,399.3582520582503) translate(60 58.6)"/><path d="M1480 586.3a8 8 0 0 1 8-8h144a8 8 0 0 1 8 8v104a8 8 0 0 1-8 8h-144a8 8 0 0 1-8-8z" stroke="#000" stroke-opacity="0" stroke-width="2" fill="#ff8080"/><use xlink:href="#k" transform="matrix(1,0,0,1,1485,583.2857487317305) translate(25.574999999999996 58.6)"/><use xlink:href="#G" transform="matrix(1,0,0,1,1485,583.2857487317305) translate(88.525 58.6)"/><path d="M1980.5 180h29.5a10 10 0 0 1 10 10v47.18a10 10 0 0 1-10 10h-220a10 10 0 0 0-10 10v67.18a10 10 0 0 0 10 10h13.62" stroke="#333" fill="none"/><path d="M1980.5 180.47h-.53l.03-.47-.02-.47h.53z" stroke="#333" stroke-width=".05" fill="#333"/><path d="M1818.38 334.36l-14.26 4.63v-9.28z" stroke="#333" fill="#333"/><path d="M1670.02 545.85l1.62.13 1.6.38 1.52.63 1.4.85 1.25 1.06 1.08 1.26.86 1.4.62 1.53.4 1.58.12 1.62v72l-.13 1.63-.4 1.6-.62 1.5-.85 1.4-1.07 1.26-1.24 1.06-1.4.86-1.52.63-1.6.38-1.62.13h-13.64v-.95h13.6l1.5-.1 1.46-.36 1.38-.57 1.28-.78 1.13-.98.97-1.14.78-1.27.58-1.37.35-1.45.13-1.5v-71.94l-.12-1.5-.34-1.46-.58-1.38-.78-1.28-.97-1.13-1.13-.98-1.28-.78-1.38-.58-1.45-.34-1.52-.12h-52.32v-.95zm-125.34-91.02l-1.5.12-1.46.35-1.38.57-1.28.78-1.13.97-.98 1.14-.78 1.28-.57 1.38-.35 1.45-.12 1.5v71.93l.12 1.5.35 1.47.57 1.38.78 1.27.97 1.14 1.14.97 1.28.78 1.38.58 1.45.35 1.5.12H1597v.95h-52.36l-1.62-.13-1.6-.38-1.52-.64-1.4-.86-1.25-1.07-1.07-1.25-.86-1.4-.62-1.52-.4-1.6-.12-1.62v-72l.13-1.62.4-1.6.63-1.52.85-1.4 1.07-1.25 1.25-1.07 1.4-.86 1.52-.63 1.6-.4 1.62-.12h29.52v.95z" stroke="#333" stroke-width=".05" fill="#333"/><path d="M1574.66 454.36l.04.47h-.55v-.95h.55z" fill="#333"/><path stroke="#333" stroke-width=".05" fill="#333"/><path d="M1655.88 642.92l-14.26-4.63 14.26-4.65z" fill="#333"/><path d="M1656.36 643.58l-16.28-5.3 16.28-5.28zm-13.2-5.3l12.25 4v-7.98z" stroke="#333" stroke-width=".05" fill="#333"/><use xlink:href="#f" transform="matrix(1,0,0,1,1597.0024502099704,536.988667061657) translate(0 12.444444444444446)"/><path d="M1653.2 515.03l.2.8.32.78.44.73.54.63.64.55.7.44.8.32.8.2.85.06h73.42v.96h-73.47l-.96-.08-.97-.23-.9-.38-.85-.52-.75-.64-.64-.75-.52-.85-.38-.9-.23-.97-.08-.95.94-.07zm232.4 4.5v.95h-138.98v-.96z" stroke="#333" stroke-width=".05" fill="#333"/><path d="M1652.67 513.7l.47-.04v.55h-.95v-.54z" fill="#333"/><path stroke="#333" stroke-width=".05" fill="#333"/><path d="M1900.37 520l-14.26 4.63v-9.26z" fill="#333"/><path d="M1901.9 520l-16.27 5.3v-10.6zm-15.32 3.98l12.26-3.98-12.26-3.98z" stroke="#333" stroke-width=".05" fill="#333"/><use xlink:href="#g" transform="matrix(1,0,0,1,1731.923389111319,510.6666666666667) translate(0 12.444444444444446)"/><path d="M1899.83 394.7h-231.1" stroke="#333" fill="none"/><path d="M1900.47 394.87h-.94v-.5h.94z" stroke="#333" stroke-width=".05" fill="#333"/><path d="M1654.3 395l14.15-4.94.2 9.27z" stroke="#333" fill="#333"/><path d="M1560 698.8v88.34a12 12 0 0 0 12 12h196a12 12 0 0 1 12 12v72.48" stroke="#333" fill="none"/><path d="M1560.47 698.8h-.94v-.5h.94z" stroke="#333" stroke-width=".05" fill="#333"/><path d="M1780 898.38l-4.63-14.26h9.27z" stroke="#333" fill="#333"/><path d="M1700 908a8 8 0 0 1 8-8h144a8 8 0 0 1 8 8v104a8 8 0 0 1-8 8h-144a8 8 0 0 1-8-8z" stroke="#000" stroke-opacity="0" stroke-width="2" fill="#ffa0a0"/><use xlink:href="#h" transform="matrix(1,0,0,1,1705,905) translate(3.125 58.6)"/><path d="M2160 718.8v78.34a12 12 0 0 1-12 12h-341.82a12 12 0 0 0-12 12v62.48" stroke="#333" fill="none"/><path d="M2160.47 718.8h-.94v-.5h.94z" stroke="#333" stroke-width=".05" fill="#333"/><path d="M1794.18 898.38l-4.64-14.26h9.27z" stroke="#333" fill="#333"/><path d="M1973.6 464.8a10.67 10.67 0 0 1 12.8 0l67.2 50.4a6 6 0 0 1 0 9.6l-67.2 50.4a10.67 10.67 0 0 1-12.8 0l-67.2-50.4a6 6 0 0 1 0-9.6z" stroke="#c54242" stroke-width="4" fill="#fff"/><use xlink:href="#H" transform="matrix(1,0,0,1,1905,465) translate(53.025 58.6)"/><path d="M2260 468a8 8 0 0 1 8-8h144a8 8 0 0 1 8 8v104a8 8 0 0 1-8 8h-144a8 8 0 0 1-8-8z" stroke="#000" stroke-opacity="0" stroke-width="2" fill="#ff8080"/><path d="M2167.32 520.48h-108.8v-.96h108.8zm76.3 0h-59.3v-.96h59.3z" stroke="#333" stroke-width=".05" fill="#333"/><path d="M2058.52 520.48h-.56l.05-.48-.04-.48h.56z" fill="#333"/><path stroke="#333" stroke-width=".05" fill="#333"/><path d="M2258.38 520l-14.26 4.63v-9.26z" fill="#333"/><path d="M2259.92 520l-16.28 5.3v-10.6zm-15.33 3.98l12.24-3.98-12.25-3.98z" stroke="#333" stroke-width=".05" fill="#333"/><use xlink:href="#q" transform="matrix(1,0,0,1,2167.3224938796416,509.2) translate(0.005000000000000782 14.4)"/><path d="M1980.47 646.27l.15 1.82.42 1.75.7 1.67.94 1.54 1.17 1.37 1.38 1.18 1.54.95 1.67.7 1.76.42 1.82.14h27.04v.96h-27.08l-1.93-.15-1.9-.45-1.8-.75-1.68-1.02-1.5-1.27-1.26-1.48-1.02-1.67-.75-1.8-.45-1.9-.15-1.95v-66.46h.94zm83.15 11.54v.96h-21.6v-.95z" stroke="#333" stroke-width=".05" fill="#333"/><path d="M1980 579.34l.47-.03v.55h-.94v-.54z" fill="#333"/><path stroke="#333" stroke-width=".05" fill="#333"/><path d="M2078.38 658.3l-14.26 4.62v-9.27z" fill="#333"/><path d="M2079.92 658.3l-16.28 5.28V653zm-15.33 3.97l12.24-3.98-12.25-4z" stroke="#333" stroke-width=".05" fill="#333"/><use xlink:href="#r" transform="matrix(1,0,0,1,2019.0598545464265,647.4857487317305) translate(0.005000000000000782 14.4)"/><path d="M2080 606.3a8 8 0 0 1 8-8h144a8 8 0 0 1 8 8v104a8 8 0 0 1-8 8h-144a8 8 0 0 1-8-8z" stroke="#000" stroke-opacity="0" stroke-width="2" fill="#ff8080"/><use xlink:href="#I" transform="matrix(1,0,0,1,2092,610.2857487317305) translate(-12.099999999999994 51.6)"/><path d="M2340.47 948.02l-.15 1.93-.45 1.9-.75 1.8-1.03 1.68-1.28 1.5-1.5 1.26-1.66 1.02-1.8.75-1.9.45-1.94.15h-451.64v-.95h451.6l1.82-.14 1.76-.42 1.67-.7 1.54-.94 1.38-1.17 1.17-1.38.95-1.54.7-1.67.4-1.76.16-1.82V580.5h.94z" stroke="#333" stroke-width=".05" fill="#333"/><path d="M2340.47 580.5h-.94v-.5h.94z" fill="#333"/><path stroke="#333" stroke-width=".05" fill="#333"/><path d="M1875.88 964.63l-14.26-4.63 14.26-4.63z" fill="#333"/><path d="M1876.36 965.3l-16.28-5.3 16.28-5.3zm-13.2-5.3l12.25 3.98v-7.96z" stroke="#333" stroke-width=".05" fill="#333"/><path d="M2728 120c17.67 0 32 17.9 32 40s-14.33 40-32 40h-96c-17.67 0-32-17.9-32-40s14.33-40 32-40z" stroke="#000" stroke-opacity="0" stroke-width="2" fill="#d2d3d5"/><use xlink:href="#a" transform="matrix(1,0,0,1,2605,125) translate(54.05 38.6)"/><path d="M2600 265.18a8 8 0 0 1 8-8h144a8 8 0 0 1 8 8v104a8 8 0 0 1-8 8h-144a8 8 0 0 1-8-8z" stroke="#000" stroke-opacity="0" stroke-width="2" fill="#d85656"/><use xlink:href="#J" transform="matrix(1,0,0,1,2605,262.17912602912514) translate(6.574999999999989 58.6)"/><use xlink:href="#K" transform="matrix(1,0,0,1,2605,262.17912602912514) translate(71.52499999999999 58.6)"/><path d="M2673.6 419.16a10.67 10.67 0 0 1 12.8 0l67.2 50.4a6 6 0 0 1 0 9.6l-67.2 50.4a10.67 10.67 0 0 1-12.8 0l-67.2-50.4a6 6 0 0 1 0-9.6z" stroke="#c54242" stroke-width="4" fill="#fff"/><use xlink:href="#L" transform="matrix(1,0,0,1,2605,419.3582520582503) translate(35.55 58.6)"/><path d="M2900 302.36a8 8 0 0 1 8-8h144a8 8 0 0 1 8 8v104a8 8 0 0 1-8 8h-144a8 8 0 0 1-8-8z" stroke="#000" stroke-opacity="0" stroke-width="2" fill="#ffa0a0"/><use xlink:href="#M" transform="matrix(1,0,0,1,2905,299.3582520582503) translate(42.25 58.6)"/><use xlink:href="#N" transform="matrix(1,0,0,1,2905,299.3582520582503) translate(67.25 58.6)"/><use xlink:href="#O" transform="matrix(1,0,0,1,2905,299.3582520582503) translate(82.75 58.6)"/><path d="M3200 402.36a8 8 0 0 1 8-8h144a8 8 0 0 1 8 8v104a8 8 0 0 1-8 8h-144a8 8 0 0 1-8-8z" stroke="#000" stroke-opacity="0" stroke-width="2" fill="#ffa0a0"/><use xlink:href="#P" transform="matrix(1,0,0,1,3205,399.3582520582503) translate(8.125 58.6)"/><path d="M2828.95 466.3l-.15 1.94-.46 1.9-.75 1.8-1.03 1.68-1.27 1.5-1.5 1.26-1.66 1.02-1.8.75-1.9.46-1.95.16h-59.05v-.95h59l1.83-.13 1.76-.43 1.67-.7 1.55-.93 1.37-1.17 1.18-1.37.94-1.54.7-1.67.42-1.76.14-1.83V423.9h.95zm54.67-117.92h-43.13l-1.83.14-1.76.43-1.66.7-1.54.93-1.37 1.18-1.18 1.37-.94 1.54-.68 1.67-.43 1.76-.15 1.82v42.38h-.95v-42.4l.15-1.95.46-1.9.76-1.8 1.02-1.68 1.27-1.5 1.5-1.26 1.66-1 1.82-.76 1.9-.46 1.94-.15h43.16z" stroke="#333" stroke-width=".05" fill="#333"/><path d="M2757.46 478.76h-.8l.14-.17.4-.8h.26z" fill="#333"/><path stroke="#333" stroke-width=".05" fill="#333"/><path d="M2898.38 347.9l-14.26 4.64v-9.27z" fill="#333"/><path d="M2899.92 347.9l-16.28 5.3V342.6zm-15.33 4l12.24-4-12.25-3.98z" stroke="#333" stroke-width=".05" fill="#333"/><use xlink:href="#Q" transform="matrix(1,0,0,1,2783.07582474089,402.29545957987824) translate(0.005000000000002558 14.4)"/><path d="M2680 200.5v40.3" stroke="#333" fill="none"/><path d="M2680.47 200.5h-.94v-.5h.94z" stroke="#333" stroke-width=".05" fill="#333"/><path d="M2680 255.56l-4.64-14.27h9.28z" stroke="#333" fill="#333"/><path d="M2900 528a8 8 0 0 1 8-8h144a8 8 0 0 1 8 8v104a8 8 0 0 1-8 8h-144a8 8 0 0 1-8-8z" stroke="#000" stroke-opacity="0" stroke-width="2" fill="#ff8080"/><use xlink:href="#R" transform="matrix(1,0,0,1,2912,532) translate(21.299999999999997 51.6)"/><use xlink:href="#S" transform="matrix(1,0,0,1,2912,532) translate(60.25 51.6)"/><use xlink:href="#T" transform="matrix(1,0,0,1,2912,532) translate(75.75 51.6)"/><path d="M2829.48 567.98l.14 1.82.43 1.76.7 1.67.93 1.54 1.18 1.38 1.37 1.17 1.54.95 1.67.7 1.76.4 1.82.15h42.6v.96H2841l-1.95-.16-1.9-.45-1.8-.75-1.68-1.03-1.5-1.28-1.26-1.5-1-1.66-.76-1.8-.46-1.9-.15-1.94v-3.04h.95zm-10.52-93.94l1.9.45 1.8.74 1.68 1.02 1.5 1.28 1.26 1.48 1.02 1.67.75 1.8.46 1.9.15 1.94v57.04h-.95v-57l-.14-1.82-.44-1.76-.7-1.67-.93-1.55-1.18-1.37-1.37-1.16-1.54-.95-1.67-.7-1.76-.42-1.8-.15h-58.5v-.95h58.52z" stroke="#333" stroke-width=".05" fill="#333"/><path d="M2758.52 474.83h-.56l.05-.47-.04-.48h.56z" fill="#333"/><path stroke="#333" stroke-width=".05" fill="#333"/><path d="M2898.38 580l-14.26 4.63v-9.26z" fill="#333"/><path d="M2899.92 580l-16.28 5.3v-10.6zm-15.33 3.98l12.24-3.98-12.25-3.98z" stroke="#333" stroke-width=".05" fill="#333"/><g><use xlink:href="#U" transform="matrix(1,0,0,1,2783.604319198574,543.3835606546884) translate(0.005000000000002558 14.4)"/></g><path d="M2980 414.86v21.86a12 12 0 0 0 12 12h191.62" stroke="#333" fill="none"/><path d="M2980.47 414.87h-.94v-.5h.94z" stroke="#333" stroke-width=".05" fill="#333"/><path d="M3198.38 448.72l-14.26 4.63v-9.27z" stroke="#333" fill="#333"/><path d="M2980 519.5v-53.14a12 12 0 0 1 12-12h191.62" stroke="#333" fill="none"/><path d="M2980.47 520h-.94v-.5h.94z" stroke="#333" stroke-width=".05" fill="#333"/><path d="M3198.38 454.36l-14.26 4.63v-9.28z" stroke="#333" fill="#333"/><path d="M2680 377.68v20.96" stroke="#333" fill="none"/><path d="M2680.47 377.7h-.94v-.52h.94z" stroke="#333" stroke-width=".05" fill="#333"/><path d="M2680 413.4l-4.64-14.26h9.28z" stroke="#333" fill="#333"/><path d="M1369.95 999.68l1.9.45 1.8.75 1.68 1.03 1.5 1.28 1.26 1.5 1.02 1.66.75 1.8.45 1.9.15 1.94v376.04l-.15 1.93-.45 1.9-.75 1.8-1.03 1.68-1.28 1.5-1.5 1.26-1.66 1.02-1.8.75-1.9.45-1.94.15H712.98l-1.93-.15-1.9-.45-1.8-.75-1.68-1.03-1.5-1.28-1.26-1.5-1.02-1.66-.75-1.8-.45-1.9-.15-1.94v-163.38l-.06-.67-.15-.63-.25-.6-.34-.56-.42-.5-.48-.4-.56-.35-.6-.25-.63-.15-.68-.06.07-.94.76.06.78.17.74.3.68.43.6.52.52.6.42.68.3.74.2.78.06.78v163.38l.14 1.82.42 1.76.7 1.67.94 1.54 1.17 1.38 1.38 1.17 1.54.95 1.67.7 1.76.4 1.82.16h654.96l1.82-.15 1.76-.42 1.67-.7 1.54-.94 1.38-1.17 1.17-1.38.95-1.54.7-1.67.4-1.76.16-1.82v-375.96l-.15-1.82-.42-1.76-.7-1.67-.94-1.54-1.17-1.38-1.38-1.17-1.54-.95-1.67-.7-1.76-.4-1.82-.15h-27.48v-.96h27.52z" stroke="#333" stroke-width=".05" fill="#333"/><path d="M1340.5 1000.48h-.5v-.96h.5z" fill="#333"/><path stroke="#333" stroke-width=".05" fill="#333"/><path d="M695.88 1224.63l-14.26-4.63 14.26-4.63z" fill="#333"/><path d="M696.36 1225.3l-16.28-5.3 16.28-5.3zm-13.2-5.3l12.25 3.98v-7.96zM1369.95 779.68l1.9.45 1.8.75 1.68 1.03 1.5 1.28 1.26 1.5 1.02 1.66.75 1.8.45 1.9.15 1.94v706.04l-.15 1.93-.45 1.9-.75 1.8-1.03 1.68-1.28 1.5-1.5 1.26-1.66 1.02-1.8.75-1.9.45-1.94.15H611.98l-1.93-.15-1.9-.45-1.8-.75-1.68-1.03-1.5-1.28-1.26-1.5-1.02-1.66-.75-1.8-.45-1.9-.15-1.94v-201.64h.95v201.6l.14 1.82.42 1.76.7 1.67.94 1.54 1.17 1.38 1.38 1.17 1.54.95 1.67.7 1.76.4 1.82.16h755.96l1.82-.15 1.76-.42 1.67-.7 1.54-.94 1.38-1.17 1.17-1.38.95-1.54.7-1.67.4-1.76.16-1.82V792.02l-.15-1.82-.42-1.76-.7-1.67-.94-1.54-1.17-1.38-1.38-1.17-1.54-.95-1.67-.7-1.76-.4-1.82-.15h-27.48v-.96h27.52z" stroke="#333" stroke-width=".05" fill="#333"/><path d="M1340.5 780.48h-.5v-.96h.5z" fill="#333"/><path stroke="#333" stroke-width=".05" fill="#333"/><path d="M604.63 1295.88h-9.26l4.63-14.26z" fill="#333"/><path d="M605.3 1296.36h-10.6l5.3-16.28zm-9.28-.95h7.96l-3.98-12.25zM1369.95 539.68l1.9.45 1.8.75 1.68 1.03 1.5 1.28 1.26 1.5 1.02 1.66.75 1.8.45 1.9.15 1.94v786.04l-.15 1.93-.45 1.9-.75 1.8-1.03 1.68-1.28 1.5-1.5 1.26-1.66 1.02-1.8.75-1.9.45-1.94.15H712.98l-1.93-.15-1.9-.45-1.8-.75-1.68-1.03-1.5-1.28-1.26-1.5-1.02-1.66-.75-1.8-.45-1.9-.15-1.94v-113.38l-.06-.67-.15-.63-.25-.6-.34-.56-.42-.5-.48-.4-.56-.35-.6-.25-.63-.15-.68-.06.07-.94.76.06.78.17.74.3.68.43.6.52.52.6.42.68.3.74.2.78.06.78v113.38l.14 1.82.42 1.76.7 1.67.94 1.54 1.17 1.38 1.38 1.17 1.54.95 1.67.7 1.76.4 1.82.16h654.96l1.82-.15 1.76-.42 1.67-.7 1.54-.94 1.38-1.17 1.17-1.38.95-1.54.7-1.67.4-1.76.16-1.82V552.02l-.15-1.82-.42-1.76-.7-1.67-.94-1.54-1.17-1.38-1.38-1.17-1.54-.95-1.67-.7-1.76-.4-1.82-.15h-27.48v-.96h27.52z" stroke="#333" stroke-width=".05" fill="#333"/><path d="M1340.5 540.48h-.5v-.96h.5z" fill="#333"/><path stroke="#333" stroke-width=".05" fill="#333"/><path d="M695.88 1224.63l-14.26-4.63 14.26-4.63z" fill="#333"/><path d="M696.36 1225.3l-16.28-5.3 16.28-5.3zm-13.2-5.3l12.25 3.98v-7.96z" stroke="#333" stroke-width=".05" fill="#333"/><path d="M680 1220.5v3.12" stroke="#333" fill="none"/><path d="M680.03 1220.47H680v-.94h.03z" stroke="#333" stroke-width=".05" fill="#333"/><path d="M680 1238.38l-4.63-14.27 9.26.02z" stroke="#333" fill="#333"/><defs><path fill="#3d4752" d="M33 0v-248h34V0H33" id="V"/><path fill="#3d4752" d="M117-194c89-4 53 116 60 194h-32v-121c0-31-8-49-39-48C34-167 62-67 57 0H25l-1-190h30c1 10-1 24 2 32 11-22 29-35 61-36" id="W"/><path fill="#3d4752" d="M24-231v-30h32v30H24zM24 0v-190h32V0H24" id="X"/><path fill="#3d4752" d="M96-169c-40 0-48 33-48 73s9 75 48 75c24 0 41-14 43-38l32 2c-6 37-31 61-74 61-59 0-76-41-82-99-10-93 101-131 147-64 4 7 5 14 7 22l-32 3c-4-21-16-35-41-35" id="Y"/><path fill="#3d4752" d="M100-194c62-1 85 37 85 99 1 63-27 99-86 99S16-35 15-95c0-66 28-99 85-99zM99-20c44 1 53-31 53-75 0-43-8-75-51-75s-53 32-53 75 10 74 51 75" id="Z"/><g id="a"><use transform="matrix(0.05,0,0,0.05,0,0)" xlink:href="#V"/><use transform="matrix(0.05,0,0,0.05,5,0)" xlink:href="#W"/><use transform="matrix(0.05,0,0,0.05,15,0)" xlink:href="#X"/><use transform="matrix(0.05,0,0,0.05,18.95,0)" xlink:href="#Y"/><use transform="matrix(0.05,0,0,0.05,27.950000000000003,0)" xlink:href="#X"/><use transform="matrix(0.05,0,0,0.05,31.899999999999995,0)" xlink:href="#Z"/></g><path fill="#fff" d="M240 0l2-218c-23 76-54 145-80 218h-23L58-218 59 0H30v-248h44l77 211c21-75 51-140 76-211h43V0h-30" id="aa"/><path fill="#fff" d="M100-194c63 0 86 42 84 106H49c0 40 14 67 53 68 26 1 43-12 49-29l28 8c-11 28-37 45-77 45C44 4 14-33 15-96c1-61 26-98 85-98zm52 81c6-60-76-77-97-28-3 7-6 17-6 28h103" id="ab"/><path fill="#fff" d="M85-194c31 0 48 13 60 33l-1-100h32l1 261h-30c-2-10 0-23-3-31C134-8 116 4 85 4 32 4 16-35 15-94c0-66 23-100 70-100zm9 24c-40 0-46 34-46 75 0 40 6 74 45 74 42 0 51-32 51-76 0-42-9-74-50-73" id="ac"/><path fill="#fff" d="M24-231v-30h32v30H24zM24 0v-190h32V0H24" id="ad"/><path fill="#fff" d="M114-163C36-179 61-72 57 0H25l-1-190h30c1 12-1 29 2 39 6-27 23-49 58-41v29" id="ae"/><path fill="#fff" d="M30-248c118-7 216 8 213 122C240-48 200 0 122 0H30v-248zM63-27c89 8 146-16 146-99s-60-101-146-95v194" id="af"/><path fill="#fff" d="M135-143c-3-34-86-38-87 0 15 53 115 12 119 90S17 21 10-45l28-5c4 36 97 45 98 0-10-56-113-15-118-90-4-57 82-63 122-42 12 7 21 19 24 35" id="ag"/><path fill="#fff" d="M59-47c-2 24 18 29 38 22v24C64 9 27 4 27-40v-127H5v-23h24l9-43h21v43h35v23H59v120" id="ah"/><path fill="#fff" d="M141-36C126-15 110 5 73 4 37 3 15-17 15-53c-1-64 63-63 125-63 3-35-9-54-41-54-24 1-41 7-42 31l-33-3c5-37 33-52 76-52 45 0 72 20 72 64v82c-1 20 7 32 28 27v20c-31 9-61-2-59-35zM48-53c0 20 12 33 32 33 41-3 63-29 60-74-43 2-92-5-92 41" id="ai"/><path fill="#fff" d="M117-194c89-4 53 116 60 194h-32v-121c0-31-8-49-39-48C34-167 62-67 57 0H25l-1-190h30c1 10-1 24 2 32 11-22 29-35 61-36" id="aj"/><path fill="#fff" d="M96-169c-40 0-48 33-48 73s9 75 48 75c24 0 41-14 43-38l32 2c-6 37-31 61-74 61-59 0-76-41-82-99-10-93 101-131 147-64 4 7 5 14 7 22l-32 3c-4-21-16-35-41-35" id="ak"/><g id="b"><use transform="matrix(0.05,0,0,0.05,0,0)" xlink:href="#aa"/><use transform="matrix(0.05,0,0,0.05,14.950000000000001,0)" xlink:href="#ab"/><use transform="matrix(0.05,0,0,0.05,24.950000000000003,0)" xlink:href="#ac"/><use transform="matrix(0.05,0,0,0.05,34.95,0)" xlink:href="#ad"/><use transform="matrix(0.05,0,0,0.05,38.900000000000006,0)" xlink:href="#ae"/><use transform="matrix(0.05,0,0,0.05,44.85000000000001,0)" xlink:href="#af"/><use transform="matrix(0.05,0,0,0.05,57.80000000000001,0)" xlink:href="#ad"/><use transform="matrix(0.05,0,0,0.05,61.750000000000014,0)" xlink:href="#ag"/><use transform="matrix(0.05,0,0,0.05,70.75000000000001,0)" xlink:href="#ah"/><use transform="matrix(0.05,0,0,0.05,75.75000000000001,0)" xlink:href="#ai"/><use transform="matrix(0.05,0,0,0.05,85.75000000000001,0)" xlink:href="#aj"/><use transform="matrix(0.05,0,0,0.05,95.75000000000001,0)" xlink:href="#ak"/><use transform="matrix(0.05,0,0,0.05,104.75,0)" xlink:href="#ad"/><use transform="matrix(0.05,0,0,0.05,108.7,0)" xlink:href="#ai"/></g><path fill="#333" d="M100-194c62-1 85 37 85 99 1 63-27 99-86 99S16-35 15-95c0-66 28-99 85-99zM99-20c44 1 53-31 53-75 0-43-8-75-51-75s-53 32-53 75 10 74 51 75" id="al"/><path fill="#333" d="M117-194c89-4 53 116 60 194h-32v-121c0-31-8-49-39-48C34-167 62-67 57 0H25l-1-190h30c1 10-1 24 2 32 11-22 29-35 61-36" id="am"/><path fill="#333" d="M103-251c84 0 111 97 45 133-19 10-37 24-39 52H78c0-63 77-55 77-114 0-30-21-42-52-43-32 0-53 17-56 46l-32-2c7-45 34-72 88-72zM77 0v-35h34V0H77" id="an"/><g id="c"><use transform="matrix(0.05,0,0,0.05,0,0)" xlink:href="#al"/><use transform="matrix(0.05,0,0,0.05,10,0)" xlink:href="#am"/><use transform="matrix(0.05,0,0,0.05,20,0)" xlink:href="#an"/></g><path fill="#333" d="M240 0l2-218c-23 76-54 145-80 218h-23L58-218 59 0H30v-248h44l77 211c21-75 51-140 76-211h43V0h-30" id="ao"/><path fill="#333" d="M100-194c63 0 86 42 84 106H49c0 40 14 67 53 68 26 1 43-12 49-29l28 8c-11 28-37 45-77 45C44 4 14-33 15-96c1-61 26-98 85-98zm52 81c6-60-76-77-97-28-3 7-6 17-6 28h103" id="ap"/><path fill="#333" d="M85-194c31 0 48 13 60 33l-1-100h32l1 261h-30c-2-10 0-23-3-31C134-8 116 4 85 4 32 4 16-35 15-94c0-66 23-100 70-100zm9 24c-40 0-46 34-46 75 0 40 6 74 45 74 42 0 51-32 51-76 0-42-9-74-50-73" id="aq"/><path fill="#333" d="M24-231v-30h32v30H24zM24 0v-190h32V0H24" id="ar"/><path fill="#333" d="M114-163C36-179 61-72 57 0H25l-1-190h30c1 12-1 29 2 39 6-27 23-49 58-41v29" id="as"/><g id="d"><use transform="matrix(0.05,0,0,0.05,0,0)" xlink:href="#ao"/><use transform="matrix(0.05,0,0,0.05,14.950000000000001,0)" xlink:href="#ap"/><use transform="matrix(0.05,0,0,0.05,24.950000000000003,0)" xlink:href="#aq"/><use transform="matrix(0.05,0,0,0.05,34.95,0)" xlink:href="#ar"/><use transform="matrix(0.05,0,0,0.05,38.900000000000006,0)" xlink:href="#as"/></g><path fill="#333" d="M30-248c118-7 216 8 213 122C240-48 200 0 122 0H30v-248zM63-27c89 8 146-16 146-99s-60-101-146-95v194" id="at"/><path fill="#333" d="M135-143c-3-34-86-38-87 0 15 53 115 12 119 90S17 21 10-45l28-5c4 36 97 45 98 0-10-56-113-15-118-90-4-57 82-63 122-42 12 7 21 19 24 35" id="au"/><path fill="#333" d="M59-47c-2 24 18 29 38 22v24C64 9 27 4 27-40v-127H5v-23h24l9-43h21v43h35v23H59v120" id="av"/><path fill="#333" d="M141-36C126-15 110 5 73 4 37 3 15-17 15-53c-1-64 63-63 125-63 3-35-9-54-41-54-24 1-41 7-42 31l-33-3c5-37 33-52 76-52 45 0 72 20 72 64v82c-1 20 7 32 28 27v20c-31 9-61-2-59-35zM48-53c0 20 12 33 32 33 41-3 63-29 60-74-43 2-92-5-92 41" id="aw"/><path fill="#333" d="M96-169c-40 0-48 33-48 73s9 75 48 75c24 0 41-14 43-38l32 2c-6 37-31 61-74 61-59 0-76-41-82-99-10-93 101-131 147-64 4 7 5 14 7 22l-32 3c-4-21-16-35-41-35" id="ax"/><g id="e"><use transform="matrix(0.05,0,0,0.05,0,0)" xlink:href="#at"/><use transform="matrix(0.05,0,0,0.05,12.950000000000001,0)" xlink:href="#ar"/><use transform="matrix(0.05,0,0,0.05,16.900000000000002,0)" xlink:href="#au"/><use transform="matrix(0.05,0,0,0.05,25.900000000000002,0)" xlink:href="#av"/><use transform="matrix(0.05,0,0,0.05,30.900000000000002,0)" xlink:href="#aw"/><use transform="matrix(0.05,0,0,0.05,40.900000000000006,0)" xlink:href="#am"/><use transform="matrix(0.05,0,0,0.05,50.900000000000006,0)" xlink:href="#ax"/><use transform="matrix(0.05,0,0,0.05,59.900000000000006,0)" xlink:href="#ar"/><use transform="matrix(0.05,0,0,0.05,63.85,0)" xlink:href="#aw"/></g><path fill="#333" d="M175 0L67-191c6 58 2 128 3 191H24v-248h59L193-55c-6-58-2-129-3-193h46V0h-61" id="ay"/><path fill="#333" d="M110-194c64 0 96 36 96 99 0 64-35 99-97 99-61 0-95-36-95-99 0-62 34-99 96-99zm-1 164c35 0 45-28 45-65 0-40-10-65-43-65-34 0-45 26-45 65 0 36 10 65 43 65" id="az"/><g id="f"><use transform="matrix(0.04320987654320988,0,0,0.04320987654320988,0,0)" xlink:href="#ay"/><use transform="matrix(0.04320987654320988,0,0,0.04320987654320988,11.19135802469136,0)" xlink:href="#az"/></g><path fill="#333" d="M169-182c-1-43-94-46-97-3 18 66 151 10 154 114 3 95-165 93-204 36-6-8-10-19-12-30l50-8c3 46 112 56 116 5-17-69-150-10-154-114-4-87 153-88 188-35 5 8 8 18 10 28" id="aA"/><path fill="#333" d="M24 0v-248h52V0H24" id="aB"/><g id="g"><use transform="matrix(0.04320987654320988,0,0,0.04320987654320988,0,0)" xlink:href="#aA"/><use transform="matrix(0.04320987654320988,0,0,0.04320987654320988,10.370370370370372,0)" xlink:href="#aB"/></g><path fill="#333" d="M108 0H70L1-190h34L89-25l56-165h34" id="aC"/><path fill="#333" d="M127-220V0H93v-220H8v-28h204v28h-85" id="aD"/><path fill="#333" d="M143 0L79-87 56-68V0H24v-261h32v163l83-92h37l-77 82L181 0h-38" id="aE"/><path fill="#333" d="M24 0v-261h32V0H24" id="aF"/><path fill="#333" d="M179-190L93 31C79 59 56 82 12 73V49c39 6 53-20 64-50L1-190h34L92-34l54-156h33" id="aG"/><path fill="#333" d="M87 75C49 33 22-17 22-94c0-76 28-126 65-167h31c-38 41-64 92-64 168S80 34 118 75H87" id="aH"/><path fill="#333" d="M27 0v-27h64v-190l-56 39v-29l58-41h29v221h61V0H27" id="aI"/><path fill="#333" d="M101-251c68 0 85 55 85 127S166 4 100 4C33 4 14-52 14-124c0-73 17-127 87-127zm-1 229c47 0 54-49 54-102s-4-102-53-102c-51 0-55 48-55 102 0 53 5 102 54 102" id="aJ"/><path fill="#333" d="M33-261c38 41 65 92 65 168S71 34 33 75H2C39 34 66-17 66-93S39-220 2-261h31" id="aK"/><g id="h"><use transform="matrix(0.05,0,0,0.05,0,0)" xlink:href="#aC"/><use transform="matrix(0.05,0,0,0.05,9,0)" xlink:href="#aD"/><use transform="matrix(0.05,0,0,0.05,17.950000000000003,0)" xlink:href="#aw"/><use transform="matrix(0.05,0,0,0.05,27.950000000000003,0)" xlink:href="#au"/><use transform="matrix(0.05,0,0,0.05,36.95,0)" xlink:href="#aE"/><use transform="matrix(0.05,0,0,0.05,45.95,0)" xlink:href="#at"/><use transform="matrix(0.05,0,0,0.05,58.900000000000006,0)" xlink:href="#ap"/><use transform="matrix(0.05,0,0,0.05,68.9,0)" xlink:href="#aF"/><use transform="matrix(0.05,0,0,0.05,72.85000000000001,0)" xlink:href="#aw"/><use transform="matrix(0.05,0,0,0.05,82.85000000000001,0)" xlink:href="#aG"/><use transform="matrix(0.05,0,0,0.05,91.85000000000001,0)" xlink:href="#aH"/><use transform="matrix(0.05,0,0,0.05,97.80000000000001,0)" xlink:href="#aI"/><use transform="matrix(0.05,0,0,0.05,107.80000000000001,0)" xlink:href="#aJ"/><use transform="matrix(0.05,0,0,0.05,117.80000000000001,0)" xlink:href="#aJ"/><use transform="matrix(0.05,0,0,0.05,127.80000000000001,0)" xlink:href="#aJ"/><use transform="matrix(0.05,0,0,0.05,137.8,0)" xlink:href="#aK"/></g><path fill="#fff" d="M24-231v-30h32v30H24zM-9 49c24 4 33-6 33-30v-209h32V24c2 40-23 58-65 49V49" id="aL"/><path fill="#fff" d="M100-194c62-1 85 37 85 99 1 63-27 99-86 99S16-35 15-95c0-66 28-99 85-99zM99-20c44 1 53-31 53-75 0-43-8-75-51-75s-53 32-53 75 10 74 51 75" id="aM"/><g id="i"><use transform="matrix(0.05,0,0,0.05,0,0)" xlink:href="#aa"/><use transform="matrix(0.05,0,0,0.05,14.950000000000001,0)" xlink:href="#ai"/><use transform="matrix(0.05,0,0,0.05,24.950000000000003,0)" xlink:href="#aj"/><use transform="matrix(0.05,0,0,0.05,34.95,0)" xlink:href="#ab"/><use transform="matrix(0.05,0,0,0.05,44.95,0)" xlink:href="#aL"/><use transform="matrix(0.05,0,0,0.05,48.900000000000006,0)" xlink:href="#aM"/></g><path fill="#fff" d="M30 0v-248h33v221h125V0H30" id="aN"/><g id="j"><use transform="matrix(0.05,0,0,0.05,0,0)" xlink:href="#aN"/><use transform="matrix(0.05,0,0,0.05,10,0)" xlink:href="#ab"/><use transform="matrix(0.05,0,0,0.05,20,0)" xlink:href="#ac"/><use transform="matrix(0.05,0,0,0.05,30,0)" xlink:href="#ag"/></g><path fill="#fff" d="M205 0l-28-72H64L36 0H1l101-248h38L239 0h-34zm-38-99l-47-123c-12 45-31 82-46 123h93" id="aO"/><path fill="#fff" d="M115-194c55 1 70 41 70 98S169 2 115 4C84 4 66-9 55-30l1 105H24l-1-265h31l2 30c10-21 28-34 59-34zm-8 174c40 0 45-34 45-75s-6-73-45-74c-42 0-51 32-51 76 0 43 10 73 51 73" id="aP"/><path fill="#fff" d="M177-190C167-65 218 103 67 71c-23-6-38-20-44-43l32-5c15 47 100 32 89-28v-30C133-14 115 1 83 1 29 1 15-40 15-95c0-56 16-97 71-98 29-1 48 16 59 35 1-10 0-23 2-32h30zM94-22c36 0 50-32 50-73 0-42-14-75-50-75-39 0-46 34-46 75s6 73 46 73" id="aQ"/><g id="k"><use transform="matrix(0.05,0,0,0.05,0,0)" xlink:href="#aO"/><use transform="matrix(0.05,0,0,0.05,12,0)" xlink:href="#aP"/><use transform="matrix(0.05,0,0,0.05,22,0)" xlink:href="#ai"/><use transform="matrix(0.05,0,0,0.05,32,0)" xlink:href="#aQ"/><use transform="matrix(0.05,0,0,0.05,42,0)" xlink:href="#ai"/><use transform="matrix(0.05,0,0,0.05,52,0)" xlink:href="#ae"/></g><g id="l"><use transform="matrix(0.05,0,0,0.05,0,0)" xlink:href="#aq"/><use transform="matrix(0.05,0,0,0.05,10,0)" xlink:href="#ar"/><use transform="matrix(0.05,0,0,0.05,13.949999999999998,0)" xlink:href="#au"/><use transform="matrix(0.05,0,0,0.05,22.95,0)" xlink:href="#av"/></g><path fill="#333" d="M18-100v-36l175-74v27L42-118l151 64v27" id="aR"/><use transform="matrix(0.05,0,0,0.05,0,0)" xlink:href="#aR" id="m"/><g id="n"><use transform="matrix(0.05,0,0,0.05,0,0)" xlink:href="#aI"/><use transform="matrix(0.05,0,0,0.05,10,0)" xlink:href="#aJ"/><use transform="matrix(0.05,0,0,0.05,20,0)" xlink:href="#an"/></g><path fill="#333" d="M205 0l-28-72H64L36 0H1l101-248h38L239 0h-34zm-38-99l-47-123c-12 45-31 82-46 123h93" id="aS"/><path fill="#333" d="M115-194c55 1 70 41 70 98S169 2 115 4C84 4 66-9 55-30l1 105H24l-1-265h31l2 30c10-21 28-34 59-34zm-8 174c40 0 45-34 45-75s-6-73-45-74c-42 0-51 32-51 76 0 43 10 73 51 73" id="aT"/><path fill="#333" d="M177-190C167-65 218 103 67 71c-23-6-38-20-44-43l32-5c15 47 100 32 89-28v-30C133-14 115 1 83 1 29 1 15-40 15-95c0-56 16-97 71-98 29-1 48 16 59 35 1-10 0-23 2-32h30zM94-22c36 0 50-32 50-73 0-42-14-75-50-75-39 0-46 34-46 75s6 73 46 73" id="aU"/><g id="o"><use transform="matrix(0.05,0,0,0.05,0,0)" xlink:href="#aS"/><use transform="matrix(0.05,0,0,0.05,12,0)" xlink:href="#aT"/><use transform="matrix(0.05,0,0,0.05,22,0)" xlink:href="#aw"/><use transform="matrix(0.05,0,0,0.05,32,0)" xlink:href="#aU"/><use transform="matrix(0.05,0,0,0.05,42,0)" xlink:href="#aw"/><use transform="matrix(0.05,0,0,0.05,52,0)" xlink:href="#as"/></g><g id="p"><use transform="matrix(0.05,0,0,0.05,0,0)" xlink:href="#av"/><use transform="matrix(0.05,0,0,0.05,5,0)" xlink:href="#al"/><use transform="matrix(0.05,0,0,0.05,15,0)" xlink:href="#aq"/><use transform="matrix(0.05,0,0,0.05,25,0)" xlink:href="#al"/><use transform="matrix(0.05,0,0,0.05,35,0)" xlink:href="#au"/></g><path fill="#333" d="M185-189c-5-48-123-54-124 2 14 75 158 14 163 119 3 78-121 87-175 55-17-10-28-26-33-46l33-7c5 56 141 63 141-1 0-78-155-14-162-118-5-82 145-84 179-34 5 7 8 16 11 25" id="aV"/><path fill="#333" d="M34 0v-190h32V0H34zM24-211c8-23 27-35 38-54h36v5l-58 49H24" id="aW"/><g id="q"><use transform="matrix(0.05,0,0,0.05,0,0)" xlink:href="#aV"/><use transform="matrix(0.05,0,0,0.05,12,0)" xlink:href="#aW"/></g><path fill="#333" d="M190 0L58-211 59 0H30v-248h39L202-35l-2-213h31V0h-41" id="aX"/><g id="r"><use transform="matrix(0.05,0,0,0.05,0,0)" xlink:href="#aX"/><use transform="matrix(0.05,0,0,0.05,12.950000000000001,0)" xlink:href="#al"/></g><g id="s"><use transform="matrix(0.05,0,0,0.05,0,0)" xlink:href="#aI"/><use transform="matrix(0.05,0,0,0.05,10,0)" xlink:href="#aJ"/></g><g id="t"><use transform="matrix(0.05,0,0,0.05,0,0)" xlink:href="#aq"/><use transform="matrix(0.05,0,0,0.05,10,0)" xlink:href="#ar"/><use transform="matrix(0.05,0,0,0.05,13.949999999999998,0)" xlink:href="#au"/><use transform="matrix(0.05,0,0,0.05,22.95,0)" xlink:href="#av"/></g><path fill="#333" d="M101-251c82-7 93 87 43 132L82-64C71-53 59-42 53-27h129V0H18c2-99 128-94 128-182 0-28-16-43-45-43s-46 15-49 41l-32-3c6-41 34-60 81-64" id="aY"/><g id="u"><use transform="matrix(0.05,0,0,0.05,0,0)" xlink:href="#aY"/><use transform="matrix(0.05,0,0,0.05,10,0)" xlink:href="#aJ"/><use transform="matrix(0.05,0,0,0.05,20,0)" xlink:href="#an"/></g><path fill="#333" d="M30-248c87 1 191-15 191 75 0 78-77 80-158 76V0H30v-248zm33 125c57 0 124 11 124-50 0-59-68-47-124-48v98" id="aZ"/><g id="v"><use transform="matrix(0.05,0,0,0.05,0,0)" xlink:href="#aZ"/><use transform="matrix(0.05,0,0,0.05,12,0)" xlink:href="#as"/><use transform="matrix(0.05,0,0,0.05,17.95,0)" xlink:href="#ap"/><use transform="matrix(0.05,0,0,0.05,27.950000000000003,0)" xlink:href="#am"/><use transform="matrix(0.05,0,0,0.05,37.95,0)" xlink:href="#aq"/><use transform="matrix(0.05,0,0,0.05,47.95,0)" xlink:href="#ap"/><use transform="matrix(0.05,0,0,0.05,57.95,0)" xlink:href="#as"/></g><path fill="#333" d="M30 0v-248h33v221h125V0H30" id="ba"/><g id="w"><use transform="matrix(0.05,0,0,0.05,0,0)" xlink:href="#ba"/><use transform="matrix(0.05,0,0,0.05,10,0)" xlink:href="#ap"/><use transform="matrix(0.05,0,0,0.05,20,0)" xlink:href="#aq"/><use transform="matrix(0.05,0,0,0.05,30,0)" xlink:href="#aI"/></g><g id="x"><use transform="matrix(0.05,0,0,0.05,0,0)" xlink:href="#aS"/><use transform="matrix(0.05,0,0,0.05,12,0)" xlink:href="#aT"/><use transform="matrix(0.05,0,0,0.05,22,0)" xlink:href="#aw"/><use transform="matrix(0.05,0,0,0.05,32,0)" xlink:href="#aU"/><use transform="matrix(0.05,0,0,0.05,42,0)" xlink:href="#aw"/><use transform="matrix(0.05,0,0,0.05,52,0)" xlink:href="#as"/></g><g id="y"><use transform="matrix(0.05,0,0,0.05,0,0)" xlink:href="#ba"/><use transform="matrix(0.05,0,0,0.05,10,0)" xlink:href="#ap"/><use transform="matrix(0.05,0,0,0.05,20,0)" xlink:href="#aq"/><use transform="matrix(0.05,0,0,0.05,30,0)" xlink:href="#aY"/></g><path fill="#333" d="M126-127c33 6 58 20 58 59 0 88-139 92-164 29-3-8-5-16-6-25l32-3c6 27 21 44 54 44 32 0 52-15 52-46 0-38-36-46-79-43v-28c39 1 72-4 72-42 0-27-17-43-46-43-28 0-47 15-49 41l-32-3c6-42 35-63 81-64 48-1 79 21 79 65 0 36-21 52-52 59" id="bb"/><g id="z"><use transform="matrix(0.05,0,0,0.05,0,0)" xlink:href="#ba"/><use transform="matrix(0.05,0,0,0.05,10,0)" xlink:href="#ap"/><use transform="matrix(0.05,0,0,0.05,20,0)" xlink:href="#aq"/><use transform="matrix(0.05,0,0,0.05,30,0)" xlink:href="#bb"/></g><g id="A"><use transform="matrix(0.05,0,0,0.05,0,0)" xlink:href="#aY"/><use transform="matrix(0.05,0,0,0.05,10,0)" xlink:href="#aJ"/></g><g id="B"><use transform="matrix(0.05,0,0,0.05,0,0)" xlink:href="#bb"/><use transform="matrix(0.05,0,0,0.05,10,0)" xlink:href="#aJ"/><use transform="matrix(0.05,0,0,0.05,20,0)" xlink:href="#an"/></g><g id="C"><use transform="matrix(0.05,0,0,0.05,0,0)" xlink:href="#aZ"/><use transform="matrix(0.05,0,0,0.05,12,0)" xlink:href="#as"/><use transform="matrix(0.05,0,0,0.05,17.95,0)" xlink:href="#ap"/><use transform="matrix(0.05,0,0,0.05,27.950000000000003,0)" xlink:href="#am"/><use transform="matrix(0.05,0,0,0.05,37.95,0)" xlink:href="#aq"/><use transform="matrix(0.05,0,0,0.05,47.95,0)" xlink:href="#ap"/><use transform="matrix(0.05,0,0,0.05,57.95,0)" xlink:href="#as"/></g><path fill="#333" d="M18-27v-27l151-64-151-65v-27l175 74v36" id="bc"/><use transform="matrix(0.05,0,0,0.05,0,0)" xlink:href="#bc" id="D"/><g id="E"><use transform="matrix(0.05,0,0,0.05,0,0)" xlink:href="#aa"/><use transform="matrix(0.05,0,0,0.05,14.950000000000001,0)" xlink:href="#aM"/><use transform="matrix(0.05,0,0,0.05,24.950000000000003,0)" xlink:href="#ag"/><use transform="matrix(0.05,0,0,0.05,33.95,0)" xlink:href="#ah"/><use transform="matrix(0.05,0,0,0.05,38.95,0)" xlink:href="#ae"/><use transform="matrix(0.05,0,0,0.05,44.900000000000006,0)" xlink:href="#ai"/><use transform="matrix(0.05,0,0,0.05,54.900000000000006,0)" xlink:href="#ae"/></g><g id="F"><use transform="matrix(0.05,0,0,0.05,0,0)" xlink:href="#af"/><use transform="matrix(0.05,0,0,0.05,12.950000000000001,0)" xlink:href="#ad"/><use transform="matrix(0.05,0,0,0.05,16.900000000000002,0)" xlink:href="#ag"/><use transform="matrix(0.05,0,0,0.05,25.900000000000002,0)" xlink:href="#ah"/><use transform="matrix(0.05,0,0,0.05,30.900000000000002,0)" xlink:href="#ai"/><use transform="matrix(0.05,0,0,0.05,40.900000000000006,0)" xlink:href="#aj"/><use transform="matrix(0.05,0,0,0.05,50.900000000000006,0)" xlink:href="#ak"/><use transform="matrix(0.05,0,0,0.05,59.900000000000006,0)" xlink:href="#ad"/><use transform="matrix(0.05,0,0,0.05,63.85,0)" xlink:href="#ai"/></g><path fill="#fff" d="M212-179c-10-28-35-45-73-45-59 0-87 40-87 99 0 60 29 101 89 101 43 0 62-24 78-52l27 14C228-24 195 4 139 4 59 4 22-46 18-125c-6-104 99-153 187-111 19 9 31 26 39 46" id="bd"/><g id="G"><use transform="matrix(0.05,0,0,0.05,0,0)" xlink:href="#aN"/><use transform="matrix(0.05,0,0,0.05,10,0)" xlink:href="#bd"/><use transform="matrix(0.05,0,0,0.05,22.950000000000003,0)" xlink:href="#af"/></g><path fill="#333" d="M106-169C34-169 62-67 57 0H25v-261h32l-1 103c12-21 28-36 61-36 89 0 53 116 60 194h-32v-121c2-32-8-49-39-48" id="be"/><g id="H"><use transform="matrix(0.05,0,0,0.05,0,0)" xlink:href="#be"/><use transform="matrix(0.05,0,0,0.05,10,0)" xlink:href="#al"/><use transform="matrix(0.05,0,0,0.05,20,0)" xlink:href="#aF"/><use transform="matrix(0.05,0,0,0.05,23.95,0)" xlink:href="#aq"/><use transform="matrix(0.05,0,0,0.05,33.95,0)" xlink:href="#an"/></g><path fill="#333" d="M212-179c-10-28-35-45-73-45-59 0-87 40-87 99 0 60 29 101 89 101 43 0 62-24 78-52l27 14C228-24 195 4 139 4 59 4 22-46 18-125c-6-104 99-153 187-111 19 9 31 26 39 46" id="bf"/><path fill="#333" d="M266 0h-40l-56-210L115 0H75L2-248h35L96-30l15-64 43-154h32l59 218 59-218h35" id="bg"/><g id="I"><use transform="matrix(0.05,0,0,0.05,0,0)" xlink:href="#ba"/><use transform="matrix(0.05,0,0,0.05,10,0)" xlink:href="#bf"/><use transform="matrix(0.05,0,0,0.05,22.950000000000003,0)" xlink:href="#at"/><use transform="matrix(0.05,0,0,0.05,35.900000000000006,0)" xlink:href="#bg"/><use transform="matrix(0.05,0,0,0.05,52.5,0)" xlink:href="#as"/><use transform="matrix(0.05,0,0,0.05,58.45,0)" xlink:href="#ar"/><use transform="matrix(0.05,0,0,0.05,62.400000000000006,0)" xlink:href="#av"/><use transform="matrix(0.05,0,0,0.05,67.4,0)" xlink:href="#ap"/><use transform="matrix(0.05,0,0,0.05,77.4,0)" xlink:href="#aH"/><use transform="matrix(0.05,0,0,0.05,83.35000000000001,0)" xlink:href="#aq"/><use transform="matrix(0.05,0,0,0.05,93.35000000000001,0)" xlink:href="#ar"/><use transform="matrix(0.05,0,0,0.05,97.30000000000001,0)" xlink:href="#au"/><use transform="matrix(0.05,0,0,0.05,106.30000000000001,0)" xlink:href="#av"/><use transform="matrix(0.05,0,0,0.05,111.30000000000001,0)" xlink:href="#aw"/><use transform="matrix(0.05,0,0,0.05,121.30000000000001,0)" xlink:href="#am"/><use transform="matrix(0.05,0,0,0.05,131.3,0)" xlink:href="#ax"/><use transform="matrix(0.05,0,0,0.05,140.3,0)" xlink:href="#ar"/><use transform="matrix(0.05,0,0,0.05,144.25,0)" xlink:href="#aw"/><use transform="matrix(0.05,0,0,0.05,154.25,0)" xlink:href="#aK"/></g><path fill="#fff" d="M84 4C-5 8 30-112 23-190h32v120c0 31 7 50 39 49 72-2 45-101 50-169h31l1 190h-30c-1-10 1-25-2-33-11 22-28 36-60 37" id="bh"/><g id="J"><use transform="matrix(0.05,0,0,0.05,0,0)" xlink:href="#aN"/><use transform="matrix(0.05,0,0,0.05,10,0)" xlink:href="#ab"/><use transform="matrix(0.05,0,0,0.05,20,0)" xlink:href="#ak"/><use transform="matrix(0.05,0,0,0.05,29,0)" xlink:href="#ah"/><use transform="matrix(0.05,0,0,0.05,34,0)" xlink:href="#bh"/><use transform="matrix(0.05,0,0,0.05,44,0)" xlink:href="#ae"/><use transform="matrix(0.05,0,0,0.05,49.95,0)" xlink:href="#ai"/></g><path fill="#fff" d="M185-189c-5-48-123-54-124 2 14 75 158 14 163 119 3 78-121 87-175 55-17-10-28-26-33-46l33-7c5 56 141 63 141-1 0-78-155-14-162-118-5-82 145-84 179-34 5 7 8 16 11 25" id="bi"/><path fill="#fff" d="M206 0h-36l-40-164L89 0H53L-1-190h32L70-26l43-164h34l41 164 42-164h31" id="bj"/><path fill="#fff" d="M106-169C34-169 62-67 57 0H25v-261h32l-1 103c12-21 28-36 61-36 89 0 53 116 60 194h-32v-121c2-32-8-49-39-48" id="bk"/><g id="K"><use transform="matrix(0.05,0,0,0.05,0,0)" xlink:href="#bi"/><use transform="matrix(0.05,0,0,0.05,12,0)" xlink:href="#bj"/><use transform="matrix(0.05,0,0,0.05,24.950000000000003,0)" xlink:href="#ad"/><use transform="matrix(0.05,0,0,0.05,28.900000000000002,0)" xlink:href="#ah"/><use transform="matrix(0.05,0,0,0.05,33.900000000000006,0)" xlink:href="#ak"/><use transform="matrix(0.05,0,0,0.05,42.900000000000006,0)" xlink:href="#bk"/><use transform="matrix(0.05,0,0,0.05,52.900000000000006,0)" xlink:href="#ab"/><use transform="matrix(0.05,0,0,0.05,62.900000000000006,0)" xlink:href="#ag"/></g><path fill="#333" d="M206 0h-36l-40-164L89 0H53L-1-190h32L70-26l43-164h34l41 164 42-164h31" id="bl"/><g id="L"><use transform="matrix(0.05,0,0,0.05,0,0)" xlink:href="#au"/><use transform="matrix(0.05,0,0,0.05,9,0)" xlink:href="#bl"/><use transform="matrix(0.05,0,0,0.05,21.950000000000003,0)" xlink:href="#ar"/><use transform="matrix(0.05,0,0,0.05,25.900000000000002,0)" xlink:href="#av"/><use transform="matrix(0.05,0,0,0.05,30.900000000000002,0)" xlink:href="#ax"/><use transform="matrix(0.05,0,0,0.05,39.900000000000006,0)" xlink:href="#be"/><use transform="matrix(0.05,0,0,0.05,49.900000000000006,0)" xlink:href="#ap"/><use transform="matrix(0.05,0,0,0.05,59.900000000000006,0)" xlink:href="#au"/><use transform="matrix(0.05,0,0,0.05,68.9,0)" xlink:href="#an"/></g><g id="M"><use transform="matrix(0.05,0,0,0.05,0,0)" xlink:href="#al"/><use transform="matrix(0.05,0,0,0.05,10,0)" xlink:href="#am"/></g><path fill="#333" d="M18-150v-26h174v26H18zm0 90v-26h174v26H18" id="bm"/><use transform="matrix(0.05,0,0,0.05,0,0)" xlink:href="#bm" id="N"/><path fill="#333" d="M63-70H37l-4-178h34zM33 0v-35h34V0H33" id="bn"/><g id="O"><use transform="matrix(0.05,0,0,0.05,0,0)" xlink:href="#bn"/><use transform="matrix(0.05,0,0,0.05,5,0)" xlink:href="#al"/><use transform="matrix(0.05,0,0,0.05,15,0)" xlink:href="#am"/></g><g id="P"><use transform="matrix(0.05,0,0,0.05,0,0)" xlink:href="#aC"/><use transform="matrix(0.05,0,0,0.05,9,0)" xlink:href="#aD"/><use transform="matrix(0.05,0,0,0.05,17.950000000000003,0)" xlink:href="#aw"/><use transform="matrix(0.05,0,0,0.05,27.950000000000003,0)" xlink:href="#au"/><use transform="matrix(0.05,0,0,0.05,36.95,0)" xlink:href="#aE"/><use transform="matrix(0.05,0,0,0.05,45.95,0)" xlink:href="#at"/><use transform="matrix(0.05,0,0,0.05,58.900000000000006,0)" xlink:href="#ap"/><use transform="matrix(0.05,0,0,0.05,68.9,0)" xlink:href="#aF"/><use transform="matrix(0.05,0,0,0.05,72.85000000000001,0)" xlink:href="#aw"/><use transform="matrix(0.05,0,0,0.05,82.85000000000001,0)" xlink:href="#aG"/><use transform="matrix(0.05,0,0,0.05,91.85000000000001,0)" xlink:href="#aH"/><use transform="matrix(0.05,0,0,0.05,97.80000000000001,0)" xlink:href="#aI"/><use transform="matrix(0.05,0,0,0.05,107.80000000000001,0)" xlink:href="#aJ"/><use transform="matrix(0.05,0,0,0.05,117.80000000000001,0)" xlink:href="#aJ"/><use transform="matrix(0.05,0,0,0.05,127.80000000000001,0)" xlink:href="#aK"/></g><path fill="#333" d="M33 0v-248h34V0H33" id="bo"/><path fill="#333" d="M197 0v-115H63V0H30v-248h33v105h134v-105h34V0h-34" id="bp"/><path fill="#333" d="M-5 72V49h209v23H-5" id="bq"/><g id="Q"><use transform="matrix(0.05,0,0,0.05,0,0)" xlink:href="#aV"/><use transform="matrix(0.05,0,0,0.05,12,0)" xlink:href="#bg"/><use transform="matrix(0.05,0,0,0.05,28.950000000000003,0)" xlink:href="#bo"/><use transform="matrix(0.05,0,0,0.05,33.95,0)" xlink:href="#aD"/><use transform="matrix(0.05,0,0,0.05,44.900000000000006,0)" xlink:href="#bf"/><use transform="matrix(0.05,0,0,0.05,57.85,0)" xlink:href="#bp"/><use transform="matrix(0.05,0,0,0.05,70.80000000000001,0)" xlink:href="#bq"/><use transform="matrix(0.05,0,0,0.05,80.80000000000001,0)" xlink:href="#aI"/></g><g id="R"><use transform="matrix(0.05,0,0,0.05,0,0)" xlink:href="#be"/><use transform="matrix(0.05,0,0,0.05,10,0)" xlink:href="#al"/><use transform="matrix(0.05,0,0,0.05,20,0)" xlink:href="#aF"/><use transform="matrix(0.05,0,0,0.05,23.95,0)" xlink:href="#aq"/></g><use transform="matrix(0.05,0,0,0.05,0,0)" xlink:href="#bm" id="S"/><g id="T"><use transform="matrix(0.05,0,0,0.05,0,0)" xlink:href="#bn"/><use transform="matrix(0.05,0,0,0.05,5,0)" xlink:href="#be"/><use transform="matrix(0.05,0,0,0.05,15,0)" xlink:href="#al"/><use transform="matrix(0.05,0,0,0.05,25,0)" xlink:href="#aF"/><use transform="matrix(0.05,0,0,0.05,28.950000000000003,0)" xlink:href="#aq"/></g><g id="U"><use transform="matrix(0.05,0,0,0.05,0,0)" xlink:href="#aV"/><use transform="matrix(0.05,0,0,0.05,12,0)" xlink:href="#bg"/><use transform="matrix(0.05,0,0,0.05,28.950000000000003,0)" xlink:href="#bo"/><use transform="matrix(0.05,0,0,0.05,33.95,0)" xlink:href="#aD"/><use transform="matrix(0.05,0,0,0.05,44.900000000000006,0)" xlink:href="#bf"/><use transform="matrix(0.05,0,0,0.05,57.85,0)" xlink:href="#bp"/><use transform="matrix(0.05,0,0,0.05,70.80000000000001,0)" xlink:href="#bq"/><use transform="matrix(0.05,0,0,0.05,80.80000000000001,0)" xlink:href="#aY"/></g></defs></g></svg>